<?xml version="1.0" standalone="no"?>
<!DOCTYPE svg PUBLIC "-//W3C//DTD SVG 20010904//EN"
 "http://www.w3.org/TR/2001/REC-SVG-20010904/DTD/svg10.dtd">
<svg version="1.0" xmlns="http://www.w3.org/2000/svg"
 width="1280.000000pt" height="1280.000000pt" viewBox="0 0 1280.000000 1280.000000"
 preserveAspectRatio="xMidYMid meet">
<g transform="translate(0.000000,1280.000000) scale(0.100000,-0.100000)"
fill="#000000" stroke="none">
<path d="M6150 12429 c-1233 -44 -2433 -470 -3418 -1213 -241 -182 -391 -314
-643 -565 -250 -251 -381 -399 -565 -644 -1305 -1731 -1585 -4026 -736 -6037
313 -743 827 -1482 1408 -2027 492 -460 947 -775 1539 -1064 1032 -503 2190
-700 3346 -569 2864 326 5116 2639 5363 5510 130 1500 -292 2984 -1187 4175
-1030 1373 -2564 2239 -4267 2410 -138 14 -215 18 -540 29 -52 1 -187 -1 -300
-5z m795 -954 c222 -26 475 -71 672 -120 1713 -424 3091 -1693 3653 -3365 130
-386 211 -779 251 -1220 16 -174 16 -666 0 -840 -63 -677 -229 -1273 -516
-1855 -261 -527 -554 -934 -980 -1361 -207 -208 -357 -339 -580 -505 -1175
-875 -2693 -1203 -4141 -893 -1262 269 -2391 1019 -3136 2081 -529 755 -840
1617 -919 2548 -15 182 -15 632 0 810 59 681 222 1271 516 1870 507 1034 1340
1861 2380 2366 558 270 1146 433 1785 494 202 19 822 13 1015 -10z"/>
<path d="M6070 10770 c-1072 -87 -2031 -521 -2784 -1259 -733 -719 -1179
-1638 -1301 -2681 -23 -192 -30 -570 -16 -770 68 -926 397 -1764 978 -2490
130 -162 394 -435 556 -573 444 -379 931 -655 1477 -837 647 -216 1341 -281
2010 -189 797 111 1539 433 2179 945 164 131 436 396 573 556 719 843 1094
1898 1065 2998 -30 1118 -472 2168 -1252 2969 -725 746 -1649 1195 -2705 1316
-158 19 -628 27 -780 15z m500 -1690 c69 -18 131 -38 138 -44 10 -10 -8 -88
-89 -395 -55 -211 -99 -384 -97 -386 11 -11 364 -91 369 -83 3 5 50 177 104
383 54 206 103 376 109 378 15 5 473 -116 486 -129 7 -7 -23 -134 -90 -389
-55 -209 -100 -387 -100 -396 0 -11 31 -28 98 -54 260 -102 485 -237 623 -375
187 -187 258 -364 246 -624 -6 -151 -40 -286 -102 -411 -95 -193 -241 -318
-454 -389 l-63 -22 78 -51 c213 -139 339 -297 395 -499 29 -102 32 -288 5
-412 -40 -189 -124 -393 -217 -528 -270 -390 -719 -504 -1462 -373 -66 12
-122 17 -126 13 -4 -5 -52 -179 -106 -387 -55 -208 -104 -386 -110 -394 -10
-14 -37 -9 -230 42 -269 70 -265 69 -264 97 0 13 44 190 98 393 54 204 96 373
92 378 -11 11 -342 99 -355 94 -7 -3 -56 -175 -111 -383 -54 -209 -104 -385
-110 -392 -10 -11 -55 -2 -246 48 -128 34 -237 64 -241 66 -5 3 -8 12 -8 21 0
9 45 188 100 398 55 210 100 384 100 388 0 9 -86 33 -500 142 -480 126 -470
123 -470 140 0 31 243 555 257 555 9 0 81 -18 162 -40 200 -54 246 -62 291
-50 39 10 103 71 114 106 50 170 576 2205 576 2231 0 68 -20 114 -69 163 -57
57 -102 75 -324 131 -89 22 -167 46 -173 52 -17 17 116 521 138 525 8 2 170
-38 359 -89 496 -132 603 -158 612 -150 4 5 53 178 108 386 54 208 104 384
110 391 8 10 32 6 117 -16 59 -15 163 -42 232 -60z"/>
<path d="M6370 7646 c0 -2 -54 -209 -121 -461 -66 -251 -119 -464 -117 -473 3
-16 9 -18 238 -77 205 -52 317 -68 480 -69 109 0 161 4 209 18 140 38 223 101
276 210 89 179 66 352 -64 490 -134 141 -337 234 -718 330 -130 33 -183 42
-183 32z"/>
<path d="M5989 6188 c0 -2 -63 -237 -139 -523 -75 -286 -134 -524 -130 -528
10 -11 261 -79 408 -112 608 -132 951 -54 1058 240 83 228 0 430 -243 591
-158 106 -413 202 -750 284 -93 23 -176 43 -185 46 -10 3 -18 4 -19 2z"/>
</g>
</svg>
